<svg id="Layer_1" data-name="Layer 1" xmlns="http://www.w3.org/2000/svg" viewBox="0 0 386.266 107.011">
  <title>b60e5695-30da-4901-b7c5-84d06bd991c8</title>
  <path d="M371.638,20.769V54.045a14.59,14.59,0,0,0-19.5,13.776V92.384a14.627,14.627,0,0,0,29.253,0V77.768h.006V11.312a4.865,4.865,0,0,1,4.867-4.868v-.3A14.63,14.63,0,0,0,371.638,20.769Zm0,81.075a4.868,4.868,0,0,1-9.736,0V58.362a4.868,4.868,0,1,1,9.736,0Z"/>
  <path d="M57.521,53.194A14.628,14.628,0,0,0,42.894,67.821V92.384a14.627,14.627,0,0,0,29.254,0V67.821A14.629,14.629,0,0,0,57.521,53.194Zm4.867,48.649a4.867,4.867,0,1,1-9.735,0V58.362a4.867,4.867,0,1,1,9.735,0Z"/>
  <g>
    <path d="M9.761,101.843V58.364A4.866,4.866,0,0,1,14.629,53.5v.018A14.149,14.149,0,0,1,26.04,59.326,7.442,7.442,0,1,0,28,61.917a14.624,14.624,0,0,0-28,5.9V92.384a14.63,14.63,0,0,0,14.629,14.627v-.3A4.869,4.869,0,0,1,9.761,101.843Z"/>
    <path d="M21.192,87.742a7.482,7.482,0,1,0,4.851,13.132,14.145,14.145,0,0,1-11.415,5.817v.32a14.627,14.627,0,0,0,13.387-8.743,7.456,7.456,0,0,0-6.823-10.525Z"/>
  </g>
  <path d="M327.977,53.194a14.633,14.633,0,0,0-14.629,14.627V92.384a14.63,14.63,0,0,0,14.629,14.627v-.3a4.869,4.869,0,0,1-4.868-4.868V90.333a4.865,4.865,0,0,1,4.868-4.865v-.013A14.627,14.627,0,0,0,342.6,70.829V67.821A14.631,14.631,0,0,0,327.977,53.194Zm4.864,27.093a4.867,4.867,0,0,1-4.864,4.868v.01a14.579,14.579,0,0,0-4.868.83V58.364a4.866,4.866,0,1,1,9.732,0Z"/>
  <g>
    <path d="M283.8,67.821V92.384a14.627,14.627,0,0,0,14.625,14.627v-.3a4.866,4.866,0,0,1-4.864-4.868V58.364A4.862,4.862,0,0,1,298.43,53.5v-.3A14.63,14.63,0,0,0,283.8,67.821Z"/>
    <path d="M298.433,38.89V14.624A14.627,14.627,0,0,0,283.8,0V.3a4.872,4.872,0,0,1,4.868,4.868V48.347a4.866,4.866,0,0,1-4.868,4.868v.3A14.63,14.63,0,0,0,298.433,38.89Z"/>
    <rect x="277.078" y="53.174" width="6.727" height="0.343"/>
    <rect x="298.433" y="53.174" width="6.724" height="0.343"/>
  </g>
  <g>
    <path d="M255.8,67.821V92.384a14.627,14.627,0,0,0,14.625,14.627v-.3a4.866,4.866,0,0,1-4.864-4.868V58.364a4.862,4.862,0,0,1,4.864-4.868v-.3A14.63,14.63,0,0,0,255.8,67.821Z"/>
    <path d="M270.431,38.89V14.624A14.627,14.627,0,0,0,255.8,0V.3a4.872,4.872,0,0,1,4.868,4.868V48.347a4.866,4.866,0,0,1-4.868,4.868v.3A14.63,14.63,0,0,0,270.431,38.89Z"/>
    <rect x="249.076" y="53.174" width="6.727" height="0.343"/>
    <rect x="270.431" y="53.174" width="6.724" height="0.343"/>
  </g>
  <g>
    <path d="M226.391,92.384a14.628,14.628,0,0,0,14.627,14.627v-.3a4.867,4.867,0,0,1-4.865-4.868V58.364a4.863,4.863,0,0,1,4.865-4.868v-.3a14.631,14.631,0,0,0-14.627,14.627Z"/>
    <circle cx="233.873" cy="13.627" r="7.482"/>
  </g>
  <path d="M197.549,53.194a14.584,14.584,0,0,0-10.286,4.249,14.589,14.589,0,0,0-20.583,0,14.589,14.589,0,0,0-10.3-4.249v.3a4.863,4.863,0,0,1,4.865,4.868v43.479a4.867,4.867,0,0,1-4.865,4.868v.3A14.627,14.627,0,0,0,171,92.384V67.821A14.551,14.551,0,0,0,166.916,57.7a14.117,14.117,0,0,1,10.046-4.2,4.866,4.866,0,0,1,4.868,4.868v43.479a4.869,4.869,0,0,1-4.868,4.868v.3a14.63,14.63,0,0,0,14.629-14.627V67.821A14.555,14.555,0,0,0,187.5,57.7a14.127,14.127,0,0,1,10.049-4.2,4.863,4.863,0,0,1,4.864,4.868v43.479a4.866,4.866,0,0,1-4.864,4.868v.3a14.627,14.627,0,0,0,14.625-14.627V67.821A14.63,14.63,0,0,0,197.549,53.194Z"/>
  <path d="M127.536,53.194a14.584,14.584,0,0,0-10.286,4.249,14.589,14.589,0,0,0-20.583,0,14.589,14.589,0,0,0-10.3-4.249v.3a4.863,4.863,0,0,1,4.865,4.868v43.479a4.867,4.867,0,0,1-4.865,4.868v.3a14.627,14.627,0,0,0,14.625-14.627V67.821A14.551,14.551,0,0,0,96.9,57.7a14.117,14.117,0,0,1,10.046-4.2,4.866,4.866,0,0,1,4.868,4.868v43.479a4.869,4.869,0,0,1-4.868,4.868v.3a14.63,14.63,0,0,0,14.629-14.627V67.821A14.555,14.555,0,0,0,117.487,57.7a14.127,14.127,0,0,1,10.049-4.2,4.863,4.863,0,0,1,4.864,4.868v43.479a4.866,4.866,0,0,1-4.864,4.868v.3a14.627,14.627,0,0,0,14.625-14.627V67.821A14.63,14.63,0,0,0,127.536,53.194Z"/>
</svg>
